<svg width="23" height="25" viewBox="0 0 23 25" fill="none" xmlns="http://www.w3.org/2000/svg">
<path d="M8.59709 23.3644C6.37475 13.4333 12.0435 5.3503 16.7891 5.08984L21.2003 8.24062L19.766 16.7705L21.8304 19.5834V23.3644H12.2453H8.59709Z" fill="#D7D9E6"/>
<path d="M11.746 6.78091C12.0943 6.78091 12.4283 6.64257 12.6745 6.39632C12.9208 6.15007 13.0591 5.81608 13.0591 5.46783C13.0591 5.11957 12.9208 4.78558 12.6745 4.53933C12.4283 4.29308 12.0943 4.15474 11.746 4.15474C11.3978 4.15474 11.0638 4.29308 10.8175 4.53933C10.5713 4.78558 10.433 5.11957 10.433 5.46783C10.433 5.81608 10.5713 6.15007 10.8175 6.39632C11.0638 6.64257 11.3978 6.78091 11.746 6.78091ZM21.1984 18.5428V10.1302H21.3433C22.7501 10.1302 23.3283 8.32164 22.1783 7.50717L12.9622 0.966152C12.6069 0.713735 12.1819 0.578125 11.746 0.578125C11.3102 0.578125 10.8852 0.713735 10.5298 0.966152L1.31067 7.50717C0.163782 8.32164 0.738799 10.1286 2.14562 10.1286H2.29371V18.5412C1.3469 19.1493 0.718319 20.2111 0.718319 21.4194V23.5194C0.718319 23.7283 0.801308 23.9287 0.949029 24.0764C1.09675 24.2241 1.2971 24.3071 1.50601 24.3071H21.9861C22.195 24.3071 22.3953 24.2241 22.5431 24.0764C22.6908 23.9287 22.7738 23.7283 22.7738 23.5194V21.4194C22.7738 20.2111 22.1468 19.1493 21.1984 18.5428ZM11.4404 2.25167C11.5291 2.18886 11.635 2.15513 11.7437 2.15513C11.8523 2.15513 11.9583 2.18886 12.0469 2.25167L20.9306 8.55322H2.55837L11.442 2.25167H11.4404ZM19.6198 10.1286V18.015C19.5328 18.0086 19.4456 18.0054 19.3583 18.0056H16.4691V10.1302H19.6198V10.1286ZM3.8691 18.015V10.1302H7.01988V18.0071H4.13061C4.04239 18.0071 3.95417 18.0103 3.86752 18.0166L3.8691 18.015ZM4.13219 19.5809H19.3615C20.376 19.5809 21.1984 20.4033 21.1984 21.4194V22.7317H2.29371V21.4194C2.29371 20.4033 3.11764 19.5809 4.13219 19.5809ZM10.9583 18.0056H8.59526V10.1302H10.9583V18.0071V18.0056ZM12.5337 18.0056V10.1302H14.8968V18.0071H12.5337V18.0056Z" fill="black"/>
</svg>
