<svg width="27" height="28" viewBox="0 0 27 28" fill="none" xmlns="http://www.w3.org/2000/svg">
<path d="M8.4375 17.9465C8.4375 17.9465 9.2639 15.3994 13.5 15.1699L17.4375 16.2805L19.4138 18.7995L19.125 20.723V23.4996L11.8125 24.0549H9L8.4375 17.9465Z" fill="#4CAEFF"/>
<path d="M10.1247 9.06109C10.1247 9.06109 9.82604 7.06936 14.0621 6.83984L15.1872 7.39515L16.3122 9.06109V10.1717L15.7496 11.8377L12.3746 12.9483L11.2496 11.2823L10.1247 9.06109Z" fill="#4CAEFF"/>
<path d="M13.425 13.5394C15.45 13.5394 17.025 11.9105 17.025 9.91141C17.025 7.91229 15.375 6.35742 13.35 6.35742C11.325 6.35742 9.75 7.98633 9.75 9.91141C9.75 11.9105 11.4 13.5394 13.425 13.5394ZM13.35 7.83825C13.425 7.83825 13.425 7.83825 13.35 7.83825C14.55 7.83825 15.525 8.80079 15.525 9.98545C15.525 11.1701 14.55 12.0586 13.35 12.0586C12.15 12.0586 11.25 11.0961 11.25 9.98545C11.25 8.80079 12.225 7.83825 13.35 7.83825Z" fill="black"/>
<path d="M24.525 13.0949C23.1 11.8362 21.225 11.1698 19.275 11.2439H18.675C18.525 11.8362 18.3 12.3545 18 12.7987C18.45 12.7247 18.825 12.7247 19.275 12.7247C20.7 12.6506 22.125 13.0949 23.25 13.9093V19.2403H24.75V13.317L24.525 13.0949Z" fill="black"/>
<path d="M17.55 6.50551C17.925 5.61701 18.975 5.17277 19.95 5.54297C20.85 5.91318 21.3 6.94976 20.925 7.9123C20.625 8.57867 19.95 9.02292 19.275 9.02292C19.125 9.02292 18.9 9.02292 18.75 8.94888C18.825 9.31908 18.825 9.68929 18.825 9.98546V10.4297C18.975 10.4297 19.125 10.5037 19.275 10.5037C21.15 10.5037 22.65 9.02292 22.65 7.24593C22.65 5.39489 21.15 3.91406 19.35 3.91406C18.15 3.91406 17.1 4.50639 16.5 5.54297C16.875 5.7651 17.25 6.06126 17.55 6.50551Z" fill="black"/>
<path d="M9 12.873C8.7 12.4287 8.475 11.9104 8.325 11.3181H7.725C5.775 11.244 3.9 11.9104 2.475 13.0951L2.25 13.3172V19.2405H3.75V13.9095C4.95 13.0951 6.3 12.6508 7.725 12.7249C8.175 12.7249 8.625 12.7989 9 12.873Z" fill="black"/>
<path d="M7.72507 10.4299C7.87507 10.4299 8.02507 10.4299 8.17507 10.3559V9.91163C8.17507 9.54143 8.17507 9.17122 8.25007 8.87505C8.10007 8.9491 7.87507 8.9491 7.72507 8.9491C6.75007 8.9491 5.92507 8.13464 5.92507 7.1721C5.92507 6.20956 6.75007 5.39511 7.72507 5.39511C8.47507 5.39511 9.15007 5.83936 9.45007 6.50573C9.75007 6.13552 10.2001 5.76532 10.5751 5.46915C9.60007 3.91428 7.57507 3.39599 6.00007 4.35853C4.42507 5.32107 3.90007 7.32018 4.87507 8.87505C5.47507 9.83759 6.52507 10.4299 7.72507 10.4299Z" fill="black"/>
<path d="M20.075 17.7435L19.925 17.5214C18.425 15.8925 16.325 14.9299 14.075 15.004C11.825 14.9299 9.65 15.8925 8.15 17.5214L8 17.7435V23.3707C8 24.037 8.525 24.6294 9.275 24.6294H18.875C19.55 24.6294 20.15 24.037 20.15 23.3707V17.7435H20.075ZM18.575 23.1485H9.5V18.2618C10.7 17.0771 12.35 16.4848 14.075 16.4848C15.725 16.4108 17.375 17.0771 18.575 18.2618V23.1485Z" fill="black"/>
</svg>
