<svg width="25" height="25" viewBox="0 0 25 25" fill="none" xmlns="http://www.w3.org/2000/svg">
<path d="M21.0687 16.5406L19.1937 21.0406C19.1372 21.1782 19.0411 21.2959 18.9176 21.3787C18.7941 21.4615 18.6487 21.5057 18.5 21.5057C18.3513 21.5057 18.2059 21.4615 18.0824 21.3787C17.9589 21.2959 17.8628 21.1782 17.8063 21.0406L15.9313 16.5406C15.8931 16.4495 15.8732 16.3518 15.8728 16.253C15.8724 16.1543 15.8915 16.0564 15.9289 15.965C15.9664 15.8736 16.0214 15.7904 16.091 15.7203C16.1606 15.6502 16.2433 15.5944 16.3344 15.5563C16.4255 15.5181 16.5232 15.4982 16.622 15.4979C16.7208 15.4975 16.8186 15.5165 16.9101 15.554C17.0015 15.5914 17.0846 15.6465 17.1547 15.716C17.2248 15.7856 17.2806 15.8683 17.3187 15.9594L18.5 18.8L19.6813 15.9594C19.7194 15.8683 19.7752 15.7856 19.8453 15.716C19.9154 15.6465 19.9985 15.5914 20.0899 15.554C20.1814 15.5165 20.2792 15.4975 20.378 15.4979C20.4768 15.4982 20.5745 15.5181 20.6656 15.5563C20.7567 15.5944 20.8394 15.6502 20.909 15.7203C20.9786 15.7904 21.0336 15.8736 21.0711 15.965C21.1085 16.0564 21.1276 16.1543 21.1272 16.253C21.1268 16.3518 21.1069 16.4495 21.0687 16.5406ZM6.6875 17C6.98641 17.003 7.27363 17.1165 7.49375 17.3188C7.56641 17.3858 7.65176 17.4376 7.74477 17.4712C7.83778 17.5047 7.93657 17.5193 8.0353 17.5141C8.13404 17.5088 8.23072 17.4839 8.31965 17.4407C8.40859 17.3975 8.48797 17.3369 8.55313 17.2625C8.68735 17.1158 8.75781 16.9218 8.74902 16.7231C8.74023 16.5245 8.65291 16.3374 8.50625 16.2031C8.00639 15.7542 7.35934 15.5041 6.6875 15.5C5.14062 15.5 3.875 16.85 3.875 18.5C3.875 20.15 5.14062 21.5 6.6875 21.5C7.35934 21.4959 8.00639 21.2458 8.50625 20.7969C8.65291 20.6626 8.74023 20.4756 8.74902 20.2769C8.75781 20.0782 8.68735 19.8842 8.55313 19.7375C8.48797 19.6631 8.40859 19.6026 8.31965 19.5594C8.23072 19.5162 8.13404 19.4912 8.0353 19.486C7.93657 19.4807 7.83778 19.4953 7.74477 19.5288C7.65176 19.5624 7.56641 19.6142 7.49375 19.6813C7.27363 19.8835 6.98641 19.9971 6.6875 20C5.96563 20 5.375 19.325 5.375 18.5C5.375 17.675 5.96563 17 6.6875 17ZM12.6594 17.7313C12.3687 17.6563 11.8531 17.5156 11.75 17.3938V17.375C11.75 17.0656 11.975 16.9063 12.4062 16.9063C12.7413 16.9131 13.067 17.0173 13.3438 17.2063H13.3344C13.4704 17.3143 13.6388 17.3737 13.8125 17.375C14.0114 17.375 14.2022 17.296 14.3428 17.1553C14.4835 17.0147 14.5625 16.8239 14.5625 16.625C14.5643 16.5152 14.5407 16.4064 14.4936 16.3072C14.4464 16.208 14.377 16.1211 14.2906 16.0531C13.7497 15.6381 13.088 15.411 12.4062 15.4063C11.1406 15.4063 10.25 16.2125 10.25 17.375C10.25 18.5375 11.4688 18.9688 12.275 19.1844C12.5938 19.2688 12.9313 19.3531 13.1375 19.475C13.3438 19.5969 13.25 19.5688 13.25 19.625C13.25 19.6813 13.25 20.0938 12.4062 20.0938C12.0712 20.0869 11.7455 19.9827 11.4688 19.7938H11.4781C11.3421 19.6857 11.1737 19.6263 11 19.625C10.8011 19.625 10.6103 19.704 10.4697 19.8447C10.329 19.9853 10.25 20.1761 10.25 20.375C10.2482 20.4848 10.2718 20.5936 10.3189 20.6928C10.3661 20.792 10.4355 20.879 10.5219 20.9469C11.0628 21.3619 11.7245 21.589 12.4062 21.5938C13.8781 21.5938 14.75 20.8531 14.75 19.625C14.75 18.3969 13.4375 17.9375 12.6594 17.7313ZM4.25 12.5V4.25001C4.25 3.85219 4.40804 3.47066 4.68934 3.18935C4.97064 2.90805 5.35218 2.75001 5.75 2.75001H14.75C14.9495 2.74889 15.1415 2.82635 15.2844 2.96564L20.5344 8.21564C20.6737 8.35851 20.7511 8.55048 20.75 8.75001V12.5C20.75 12.6989 20.671 12.8897 20.5303 13.0303C20.3897 13.171 20.1989 13.25 20 13.25H5C4.80109 13.25 4.61032 13.171 4.46967 13.0303C4.32902 12.8897 4.25 12.6989 4.25 12.5ZM14.75 8.75001H18.875L14.75 4.62501V8.75001Z" fill="#313945"/>
</svg>
