<svg width="25" height="27" viewBox="0 0 25 27" fill="none" xmlns="http://www.w3.org/2000/svg">
<path d="M10.4211 24.6499C8.37096 15.4882 19.4139 9.77543 23.7919 9.53516L21.4664 14.7672L23.7918 16.5112L23.2105 19.4179L20.8263 21.1267L16.2344 21.7432L15.0717 25.2312L10.4211 24.6499Z" fill="#D7D9E6"/>
<path d="M12.7599 16.8954C10.8944 16.8954 9.38538 15.4421 9.38538 13.6167C9.38538 11.7913 10.8944 10.3263 12.7599 10.3263C14.6254 10.3263 16.0987 11.7913 16.0987 13.6167C16.0987 15.4421 14.6254 16.8954 12.7599 16.8954" stroke="black"/>
<path d="M23.4767 16.3608C23.251 16.012 22.9302 15.6632 22.5143 15.4423C22.1816 15.2795 21.9677 15.0121 21.7776 14.6982C21.1716 13.6983 21.5281 12.3844 22.5381 11.7915C23.7263 11.1288 24.1065 9.65216 23.4173 8.50112L22.6212 7.12916C21.944 5.97811 20.4587 5.57118 19.2824 6.24553C18.2368 6.80361 16.8941 6.43156 16.2881 5.44328C16.098 5.11773 15.9911 4.76893 16.0148 4.42013C16.0505 3.96669 15.9079 3.5365 15.694 3.1877C15.2544 2.46684 14.4583 1.97852 13.579 1.97852H11.9036C11.0363 2.00177 10.2402 2.46684 9.80052 3.1877C9.57476 3.5365 9.44406 3.96669 9.46782 4.42013C9.49159 4.76893 9.38465 5.11773 9.19454 5.44328C8.58855 6.43156 7.24588 6.80361 6.21215 6.24553C5.02395 5.57118 3.55057 5.97811 2.86142 7.12916L2.06532 8.50112C1.38804 9.65216 1.76827 11.1288 2.94459 11.7915C3.95456 12.3844 4.31102 13.6983 3.71692 14.6982C3.51493 15.0121 3.30105 15.2795 2.96835 15.4423C2.56437 15.6632 2.2079 16.012 2.01779 16.3608C1.57816 17.0816 1.60192 17.9885 2.04156 18.7443L2.86142 20.1395C3.30105 20.8836 4.12091 21.3487 4.97642 21.3487C5.38041 21.3487 5.85569 21.2324 6.23591 20.9999C6.53296 20.8022 6.88942 20.7324 7.28153 20.7324C8.45785 20.7324 9.44406 21.6975 9.46782 22.8485C9.46782 24.1856 10.561 25.232 11.9393 25.232H13.5552C14.9217 25.232 16.0148 24.1856 16.0148 22.8485C16.0505 21.6975 17.0367 20.7324 18.213 20.7324C18.5932 20.7324 18.9497 20.8022 19.2586 20.9999C19.6388 21.2324 20.1022 21.3487 20.5181 21.3487C21.3617 21.3487 22.1816 20.8836 22.6212 20.1395L23.453 18.7443C23.8807 17.9653 23.9164 17.0816 23.4767 16.3608" stroke="black" stroke-width="2"/>
</svg>
