<svg width="204" height="81" viewBox="0 0 204 81" fill="none" xmlns="http://www.w3.org/2000/svg">
<g id="Group 1000002894">
<path id="Vector" d="M37 27.5459L36.5967 27.3091C36.5659 27.2912 33.4844 25.4628 32.7185 23.244L32.5477 22.7525L32.2319 23.1651C32.2221 23.178 31.7842 23.7195 30.5589 24.3546C29.6518 19.1913 26.566 13.0271 22.5108 10.3989C23.6701 10.4926 24.8332 10.3964 25.9555 9.98815C26.6314 9.74272 26.3397 8.64135 25.6576 8.89048C24.7376 9.22533 23.8157 9.3166 22.8956 9.26973C25.1544 7.19958 26.928 4.02683 26.928 1.70693C26.928 1.14947 26.928 0.111617 26.1017 0.111617C25.7699 0.111617 25.5016 0.318817 25.131 0.60495C24.5624 1.0434 23.7041 1.70693 22.443 1.70693C21.9626 1.70693 21.0832 1.20003 20.3765 0.793033C19.5224 0.30155 18.9767 0 18.5179 0C17.7582 0 16.6414 0.6142 15.6559 1.15625C15.2551 1.3764 14.7069 1.67857 14.5934 1.70755C13.1652 1.70755 12.3358 1.04895 11.7857 0.612967C11.4651 0.357667 11.2326 0.172667 10.9224 0.172667C10.1096 0.172667 10.1096 1.14762 10.1096 2.27673C10.1096 4.45603 11.7697 7.33278 13.9434 9.26603C12.5738 9.36408 11.2233 9.77787 10.2743 10.6973C9.75012 11.2042 10.5444 12.0084 11.0667 11.5027C11.8554 10.738 12.8896 10.4106 13.9959 10.347C14.0273 10.4599 14.0655 10.5709 14.1124 10.68C9.47755 14.0107 6.18517 21.9194 6.18517 27.2585C6.18517 27.7852 6.22587 28.2618 6.28877 28.7108C5.09367 28.1798 4.65768 27.7142 4.64905 27.7038L4.33085 27.3368L4.17422 27.7993C3.4817 29.8368 0.471133 31.6042 0.440917 31.622L0 31.878L0.448317 32.1203C0.605567 32.2054 0.761583 32.28 0.918833 32.3608L0.635167 32.5575L0.785017 34.4322L12.5344 37L16.9892 34.1504C17.4387 34.1529 17.8938 34.1541 18.3569 34.1541L23.5641 37L35.3356 33.3V31.3211L35.0242 31.1343C35.1796 31.0356 35.335 30.9351 35.4898 30.8315L35.9023 30.5558L35.8117 30.5114L36.3365 30.3678L36.4253 28.3106L36.1219 28.0953C36.2834 27.9985 36.4444 27.8999 36.6059 27.7975L37 27.5459ZM11.2313 2.27673C11.2313 2.00293 11.2351 1.78957 11.2406 1.62368C11.335 1.69768 11.4447 1.77847 11.5619 1.86172C11.9214 2.72258 12.6016 3.96208 13.7548 4.74278C15.1558 5.69245 14.9696 4.60095 15.717 3.60442C16.4644 2.6085 16.9701 2.0868 18.2219 4.64843C18.7676 5.76522 19.6772 2.64427 20.5418 2.18855C20.7706 2.31312 20.9987 2.42905 21.2226 2.52772C22.7729 5.04865 23.4913 4.2624 24.8683 2.16697C25.247 1.94497 25.5578 1.70693 25.805 1.51638C25.8063 1.57373 25.8075 1.63725 25.8075 1.70817C25.8075 3.68767 24.19 6.5268 22.2092 8.37865C22.1157 8.14098 21.9818 7.92129 21.8134 7.7293C21.0135 6.82342 19.7636 7.82797 19.1709 8.48718C18.1195 8.14925 16.4064 7.2187 15.2902 7.7515C15.0123 7.88045 14.757 8.0535 14.5342 8.26395C12.7089 6.60018 11.2313 4.19827 11.2313 2.27673ZM21.2238 9.04403C20.9473 8.98541 20.6724 8.91961 20.3993 8.8467C20.7434 8.55008 21.0592 8.44648 21.1918 8.8874C21.2059 8.9355 21.2146 8.99038 21.2238 9.04403ZM16.5371 9.42698C16.333 9.38813 16.1234 9.35298 15.9075 9.32523C15.7439 9.22265 15.5837 9.11468 15.4272 9.00148C15.9908 8.62347 16.9627 8.8245 17.8913 9.13962C17.4332 9.18587 16.9811 9.28577 16.5371 9.42698ZM16.8171 11.055C16.4718 11.1413 16.0956 11.1068 15.7706 10.9773C15.9026 10.9076 16.0358 10.8472 16.169 10.7861C16.3848 10.8903 16.6007 10.9773 16.8171 11.055ZM5.41063 33.5337C3.93981 33.1078 2.51264 32.5435 1.14823 31.8484C1.98505 31.2983 3.80792 29.9682 4.54915 28.3698C5.05728 28.7687 6.23018 29.4964 8.51432 30.0551C8.47547 30.118 8.42798 30.1852 8.38235 30.2512C6.43245 29.7406 5.32368 29.0949 5.3058 29.0838L5.03693 28.9235L4.90805 29.2115C4.73847 29.5889 4.34072 29.6456 4.11933 29.6456C4.05767 29.6456 4.01635 29.6413 4.0108 29.6407L3.79065 29.6086L3.71048 29.8195C3.54645 30.25 2.87305 30.8124 2.62638 30.993L2.21445 31.2952L2.68558 31.4882C2.86072 31.5598 2.9082 31.6257 2.91067 31.643C2.91683 31.6856 2.84222 31.7978 2.76267 31.8625L2.40377 32.1518L2.82125 32.3448C3.67657 32.7395 4.64535 33.0663 5.61413 33.3358C5.53705 33.4116 5.47045 33.4764 5.41063 33.5337ZM10.3834 31.236C11.2455 31.3569 12.2007 31.4333 13.2442 31.4333H13.2448C13.4618 31.4333 13.682 31.4297 13.9065 31.4229C13.9214 31.4694 13.9428 31.5136 13.97 31.5542C14.0248 31.6375 14.0989 31.7065 14.1926 31.7602L12.6188 33.1051C12.5889 33.1038 12.5588 33.1032 12.5288 33.1033C11.8277 33.1033 11.3047 33.361 11.0538 33.8199C10.1028 33.6986 9.15631 33.5449 8.21585 33.3592C8.97185 32.6865 9.6952 31.9779 10.3834 31.236ZM3.38488 31.9742C3.44655 31.8576 3.48663 31.7164 3.46505 31.5622C3.44455 31.4232 3.37787 31.295 3.27573 31.1984C3.55262 30.961 3.93433 30.5947 4.144 30.2154C4.62068 30.2087 5.01412 30.028 5.26202 29.7085C5.6795 29.9268 6.61992 30.3678 8.00927 30.7501C7.44132 31.4623 6.67603 32.2702 6.08095 32.8708C5.15348 32.6254 4.21923 32.3294 3.38488 31.9742ZM12.173 34.5697L12.0466 34.5703C11.5156 34.5703 9.75628 34.5272 7.43207 34.0431C7.51347 33.974 7.59795 33.9031 7.67627 33.8353C9.56203 34.2293 11.0827 34.3983 11.1968 34.4112L11.4225 34.4353L11.4922 34.2164C11.6445 33.744 12.2063 33.6743 12.5282 33.6743C12.6164 33.6743 12.675 33.6799 12.6818 33.6805L12.8014 33.6934L15.5351 31.3575L14.8043 31.3335C14.5601 31.3248 14.4571 31.2699 14.4319 31.2323L14.5866 30.8272L14.1587 30.8451C13.8466 30.8586 13.542 30.8654 13.2442 30.8654H13.2435C12.3827 30.8654 11.5841 30.8087 10.8459 30.7192L11.0174 30.517C12.5072 30.7162 14.2912 30.8389 16.4453 30.8235C15.931 31.545 14.6483 33.0786 12.173 34.5697ZM18.3545 31.8903V33.0157C18.0036 33.0157 17.662 33.0145 17.3277 33.012L17.2272 31.7454L16.3922 31.8132C16.9546 31.1485 17.1945 30.7051 17.2161 30.665L17.4424 30.237L16.9645 30.2457C12.3901 30.3295 9.40663 29.7844 7.52333 29.1788C7.38582 28.6226 7.30627 27.9936 7.30627 27.2591C7.30627 22.2499 10.5074 14.6785 14.7575 11.61C15.5104 12.3383 16.6525 12.6571 17.7378 11.9485C17.9758 11.7931 18.183 11.5896 18.3773 11.3732C18.4235 11.3744 18.471 11.3849 18.5179 11.3849C18.6733 11.3849 18.8312 11.372 18.9884 11.3522C19.1876 11.4318 19.3825 11.5119 19.5631 11.5915C20.4283 11.9726 21.1671 11.7358 21.6715 11.2104C25.5645 13.5661 28.6836 19.7975 29.5044 24.8344C27.7247 25.546 24.9016 26.2404 20.5689 26.3625C21.4236 25.8741 22.065 25.0527 21.8343 23.9735C21.592 22.8327 20.6386 22.512 19.6513 22.4596C19.6489 21.9237 19.6488 21.3891 19.6525 20.8532C19.9553 20.987 20.2458 21.1412 20.5097 21.3058C20.9759 21.5987 21.3977 20.8396 20.9346 20.5467C20.533 20.2943 20.1045 20.0876 19.6569 19.9307C19.663 19.3103 19.6661 18.6912 19.6661 18.072C19.6667 17.5047 18.8238 17.5047 18.8238 18.072C18.8238 18.6166 18.8201 19.1604 18.8151 19.7037C18.3664 19.6255 17.9083 19.6178 17.4572 19.6809C17.3839 19.2727 17.295 18.8675 17.1908 18.4661C17.0515 17.9197 16.2374 18.151 16.3787 18.6992C16.4823 19.0932 16.5668 19.4854 16.6364 19.8832C16.6007 19.8967 16.5618 19.9035 16.5267 19.9196C15.3846 20.3716 14.6878 21.5241 15.5234 22.599C15.9125 23.0997 16.4212 23.302 16.9781 23.3692C17.0083 24.111 17.0274 24.8535 17.049 25.5948C16.6759 25.3524 16.3361 25.0416 16.0284 24.7129C15.6473 24.3109 15.0522 24.9318 15.4327 25.3333C15.9501 25.884 16.4934 26.3002 17.0823 26.5666C17.1088 27.1999 17.1464 27.8351 17.2081 28.4653C17.2624 29.0247 18.1059 29.0277 18.0511 28.4653C17.9991 27.9202 17.9606 27.3739 17.9357 26.8268C18.2564 26.8823 18.5931 26.8965 18.9508 26.8626C18.9909 27.446 19.0377 28.0293 19.1043 28.6127C19.1426 28.9469 19.462 29.0783 19.6976 29.0105L19.6451 30.2216C19.2739 30.2549 18.8953 30.2857 18.5006 30.3116L18.0307 30.3425L18.2811 30.747C18.3064 30.7877 18.5906 31.2372 19.2252 31.8915H18.3545V31.8903ZM33.7021 27.8314C32.9269 28.1959 31.9464 28.5301 30.9474 28.8218C30.3332 28.1872 29.5476 27.3405 28.9611 26.5894C30.2679 26.1935 30.9992 25.7853 31.3291 25.5652C31.59 25.7952 31.9353 25.9148 32.3442 25.9142C32.4798 25.9142 32.6001 25.9012 32.6926 25.8864C32.9886 26.27 33.4659 26.7128 33.7644 26.9773C33.6231 27.1222 33.5547 27.2826 33.5602 27.4558C33.5652 27.6038 33.6244 27.7297 33.7021 27.8314ZM29.2898 29.8578C29.4156 29.9688 29.5457 30.0822 29.6783 30.1969C27.1784 30.8598 25.3179 30.932 24.9127 30.9388C22.3239 29.3595 20.9821 27.6883 20.4647 26.936C22.6311 26.8817 24.4219 26.6856 25.9154 26.4155C25.9762 26.4901 26.0376 26.5641 26.0998 26.6375C24.8994 26.8245 23.6894 26.9445 22.4756 26.997L21.978 27.018L22.2518 27.4367C22.2512 27.4374 22.1957 27.541 21.8281 27.6125L21.2306 27.729L24.1684 30.1075L24.3053 30.0705C24.3084 30.0699 24.5674 30.0002 24.8806 30.0002C25.3327 30.0002 25.6416 30.1377 25.797 30.4066L25.8957 30.5768L26.0875 30.5429C27.1616 30.3471 28.2296 30.1186 29.2898 29.8578ZM20.5967 28.0454L19.8949 28.0072C19.8622 27.6569 19.8295 27.3066 19.8049 26.9564C19.9282 27.1611 20.181 27.5459 20.5967 28.0454ZM19.7284 25.7878C19.688 24.9577 19.6635 24.1269 19.655 23.2958C19.7562 23.2995 19.8561 23.3088 19.951 23.3223C21.0413 23.4876 21.3262 24.7 20.4752 25.382C20.2532 25.5578 19.9973 25.6866 19.7284 25.7878ZM26.1658 29.9515C25.8895 29.6105 25.4498 29.4317 24.8813 29.4317C24.6439 29.4317 24.4348 29.4637 24.3028 29.4896L22.4559 27.993C22.6095 27.9048 22.7131 27.7932 22.7698 27.6563C22.7838 27.6222 22.7945 27.5869 22.8019 27.5508C24.2658 27.4706 25.4992 27.3245 26.542 27.1457C27.0476 27.7099 27.7907 28.4882 28.7761 29.3928C27.5656 29.6808 26.5561 29.8781 26.1658 29.9515ZM18.8114 23.318C18.8231 24.2116 18.8453 25.1076 18.8928 26.0005C18.8133 26.0128 18.735 26.0283 18.6566 26.0363C18.3915 26.0665 18.1399 26.0443 17.9006 25.9839C17.8704 25.1205 17.8506 24.2554 17.818 23.3914C18.1497 23.376 18.4858 23.3433 18.8114 23.318ZM17.7754 22.5379C17.7369 21.8603 17.6731 21.1844 17.5842 20.5116C17.993 20.4554 18.4086 20.4765 18.8096 20.5738C18.8051 21.2043 18.8041 21.8347 18.8065 22.4652C18.5358 22.48 18.2786 22.5059 18.0523 22.5262C17.9602 22.5334 17.8678 22.5373 17.7754 22.5379ZM16.9293 22.43C16.8769 22.4158 16.8251 22.4047 16.7715 22.3869C16.5247 22.3032 16.3014 22.1623 16.1197 21.9755C15.593 21.4841 16.3158 21.0018 16.7715 20.773C16.843 21.3219 16.8923 21.8756 16.9293 22.43ZM23.7355 34.4341C21.0586 33.0663 19.6223 31.5462 19.0519 30.842C19.462 30.8111 19.8499 30.7741 20.2341 30.7353L24.6235 33.5843L34.2497 30.94C29.2855 33.9321 24.3812 34.3878 23.7355 34.4341ZM31.6856 29.5686C31.6066 29.4896 31.5123 29.3959 31.4007 29.283C32.4959 28.9513 33.5553 28.5665 34.3452 28.1434L34.8256 27.8851L34.3385 27.6372C34.2293 27.581 34.1226 27.4781 34.1208 27.4392C34.122 27.4244 34.1652 27.3455 34.352 27.2382L34.7085 27.0334L34.3915 26.7695C34.3816 26.7615 33.3931 25.9407 33.0459 25.4122L32.9312 25.2396L32.7345 25.2969C32.7327 25.2969 32.5637 25.3456 32.3442 25.3456C32.005 25.3462 31.7509 25.2352 31.5881 25.0169L31.4081 24.7783L31.1824 24.9725C31.1707 24.9824 30.472 25.5553 28.5979 26.0967C28.5362 26.0078 28.4768 25.9173 28.4197 25.8254C30.6921 25.1366 31.8533 24.3028 32.3565 23.8465C33.1643 25.5941 35.0877 27.002 35.9227 27.5539C34.5813 28.3656 33.1618 29.0405 31.6856 29.5686Z" fill="white"/>
<g id="Mask group">
<mask id="mask0_0_679" style="mask-type:alpha" maskUnits="userSpaceOnUse" x="23" y="9" width="181" height="72">
<rect id="Rectangle 554" x="23" y="9" width="181" height="72" rx="10" fill="#FC6B21"/>
</mask>
<g mask="url(#mask0_0_679)">
<path id="Vector_2" d="M37 27.5459L36.5967 27.3091C36.5659 27.2912 33.4844 25.4628 32.7185 23.244L32.5477 22.7525L32.2319 23.1651C32.2221 23.178 31.7842 23.7195 30.5589 24.3546C29.6518 19.1913 26.566 13.0271 22.5108 10.3988C23.6701 10.4926 24.8332 10.3964 25.9555 9.98815C26.6314 9.74272 26.3397 8.64135 25.6576 8.89048C24.7376 9.22533 23.8157 9.3166 22.8956 9.26973C25.1544 7.19958 26.928 4.02683 26.928 1.70693C26.928 1.14947 26.928 0.111617 26.1016 0.111617C25.7699 0.111617 25.5016 0.318817 25.131 0.60495C24.5624 1.0434 23.704 1.70693 22.443 1.70693C21.9626 1.70693 21.0832 1.20003 20.3765 0.793033C19.5224 0.30155 18.9767 0 18.5179 0C17.7582 0 16.6414 0.6142 15.6559 1.15625C15.2551 1.3764 14.7069 1.67857 14.5934 1.70755C13.1652 1.70755 12.3358 1.04895 11.7857 0.612967C11.4651 0.357667 11.2326 0.172667 10.9224 0.172667C10.1096 0.172667 10.1096 1.14762 10.1096 2.27673C10.1096 4.45603 11.7697 7.33278 13.9434 9.26603C12.5738 9.36408 11.2233 9.77787 10.2743 10.6973C9.75012 11.2042 10.5444 12.0083 11.0667 11.5027C11.8554 10.738 12.8896 10.4106 13.9959 10.347C14.0273 10.4599 14.0655 10.5709 14.1124 10.68C9.47755 14.0107 6.18517 21.9194 6.18517 27.2585C6.18517 27.7851 6.22587 28.2618 6.28877 28.7108C5.09367 28.1798 4.65768 27.7142 4.64905 27.7037L4.33085 27.3368L4.17422 27.7993C3.4817 29.8368 0.471133 31.6042 0.440917 31.622L0 31.878L0.448317 32.1203C0.605567 32.2054 0.761583 32.28 0.918833 32.3608L0.635167 32.5575L0.785017 34.4322L12.5344 37L16.9892 34.1504C17.4387 34.1529 17.8938 34.1541 18.3569 34.1541L23.5641 37L35.3356 33.3V31.3211L35.0242 31.1343C35.1796 31.0356 35.335 30.9351 35.4898 30.8315L35.9023 30.5558L35.8117 30.5114L36.3365 30.3678L36.4253 28.3105L36.1219 28.0953C36.2834 27.9985 36.4444 27.8998 36.6059 27.7975L37 27.5459ZM11.2313 2.27673C11.2313 2.00293 11.2351 1.78957 11.2406 1.62368C11.335 1.69768 11.4447 1.77847 11.5619 1.86172C11.9214 2.72258 12.6016 3.96208 13.7547 4.74278C15.1558 5.69245 14.9696 4.60095 15.717 3.60442C16.4644 2.6085 16.97 2.0868 18.2219 4.64843C18.7676 5.76522 19.6772 2.64427 20.5418 2.18855C20.7706 2.31312 20.9987 2.42905 21.2226 2.52772C22.7729 5.04865 23.4913 4.2624 24.8683 2.16697C25.2469 1.94497 25.5577 1.70693 25.805 1.51638C25.8063 1.57373 25.8075 1.63725 25.8075 1.70817C25.8075 3.68767 24.19 6.5268 22.2092 8.37865C22.1157 8.14098 21.9818 7.92129 21.8134 7.7293C21.0135 6.82342 19.7635 7.82797 19.1709 8.48718C18.1195 8.14925 16.4064 7.2187 15.2902 7.7515C15.0123 7.88045 14.757 8.0535 14.5342 8.26395C12.7089 6.60018 11.2313 4.19827 11.2313 2.27673ZM21.2238 9.04403C20.9473 8.9854 20.6724 8.91961 20.3993 8.8467C20.7434 8.55008 21.0592 8.44648 21.1917 8.8874C21.2059 8.9355 21.2146 8.99038 21.2238 9.04403ZM16.5371 9.42698C16.333 9.38813 16.1234 9.35298 15.9075 9.32523C15.7439 9.22265 15.5837 9.11468 15.4271 9.00148C15.9908 8.62347 16.9626 8.8245 17.8913 9.13962C17.4332 9.18587 16.9811 9.28577 16.5371 9.42698ZM16.8171 11.055C16.4718 11.1413 16.0956 11.1068 15.7706 10.9773C15.9026 10.9076 16.0358 10.8472 16.169 10.7861C16.3848 10.8903 16.6007 10.9773 16.8171 11.055ZM5.41063 33.5337C3.93981 33.1078 2.51264 32.5435 1.14823 31.8484C1.98505 31.2983 3.80792 29.9681 4.54915 28.3697C5.05728 28.7687 6.23018 29.4964 8.51432 30.0551C8.47547 30.118 8.42798 30.1852 8.38235 30.2512C6.43245 29.7406 5.32368 29.0949 5.3058 29.0838L5.03693 28.9235L4.90805 29.2115C4.73847 29.5889 4.34072 29.6456 4.11933 29.6456C4.05767 29.6456 4.01635 29.6413 4.0108 29.6407L3.79065 29.6086L3.71048 29.8195C3.54645 30.25 2.87305 30.8124 2.62638 30.993L2.21445 31.2952L2.68558 31.4882C2.86072 31.5598 2.9082 31.6257 2.91067 31.643C2.91683 31.6856 2.84222 31.7978 2.76267 31.8625L2.40377 32.1518L2.82125 32.3448C3.67657 32.7394 4.64535 33.0663 5.61413 33.3358C5.53705 33.4116 5.47045 33.4764 5.41063 33.5337ZM10.3834 31.236C11.2455 31.3569 12.2007 31.4333 13.2441 31.4333H13.2448C13.4618 31.4333 13.682 31.4296 13.9064 31.4229C13.9214 31.4694 13.9428 31.5136 13.97 31.5542C14.0248 31.6375 14.0988 31.7065 14.1926 31.7602L12.6188 33.1051C12.5889 33.1038 12.5588 33.1032 12.5288 33.1033C11.8277 33.1033 11.3047 33.361 11.0537 33.8198C10.1028 33.6986 9.15631 33.5449 8.21585 33.3592C8.97185 32.6865 9.6952 31.9779 10.3834 31.236ZM3.38488 31.9742C3.44655 31.8576 3.48663 31.7164 3.46505 31.5622C3.44455 31.4231 3.37787 31.295 3.27573 31.1984C3.55262 30.961 3.93433 30.5947 4.144 30.2154C4.62068 30.2086 5.01412 30.028 5.26202 29.7085C5.6795 29.9268 6.61992 30.3678 8.00927 30.7501C7.44132 31.4623 6.67603 32.2702 6.08095 32.8708C5.15348 32.6254 4.21923 32.3294 3.38488 31.9742ZM12.173 34.5697L12.0466 34.5703C11.5156 34.5703 9.75628 34.5272 7.43207 34.0431C7.51347 33.974 7.59795 33.9031 7.67627 33.8353C9.56203 34.2293 11.0827 34.3983 11.1968 34.4112L11.4225 34.4353L11.4922 34.2164C11.6445 33.744 12.2063 33.6743 12.5282 33.6743C12.6164 33.6743 12.675 33.6799 12.6818 33.6805L12.8014 33.6934L15.5351 31.3575L14.8043 31.3334C14.5601 31.3248 14.4571 31.2699 14.4318 31.2323L14.5866 30.8272L14.1587 30.8451C13.8466 30.8586 13.542 30.8654 13.2441 30.8654H13.2435C12.3827 30.8654 11.5841 30.8087 10.8459 30.7192L11.0174 30.517C12.5072 30.7162 14.2912 30.8389 16.4453 30.8235C15.931 31.545 14.6483 33.0786 12.173 34.5697ZM18.3545 31.8903V33.0157C18.0036 33.0157 17.6619 33.0145 17.3277 33.012L17.2272 31.7454L16.3922 31.8132C16.9546 31.1485 17.1945 30.7051 17.2161 30.665L17.4424 30.237L16.9645 30.2456C12.3901 30.3295 9.40663 29.7844 7.52333 29.1788C7.38582 28.6226 7.30627 27.9936 7.30627 27.2591C7.30627 22.2499 10.5074 14.6785 14.7574 11.61C15.5104 12.3383 16.6525 12.6571 17.7378 11.9485C17.9758 11.7931 18.183 11.5896 18.3773 11.3732C18.4235 11.3744 18.471 11.3849 18.5179 11.3849C18.6733 11.3849 18.8311 11.372 18.9884 11.3522C19.1876 11.4318 19.3824 11.5119 19.5631 11.5915C20.4283 11.9726 21.1671 11.7358 21.6715 11.2104C25.5645 13.5661 28.6836 19.7975 29.5044 24.8344C27.7247 25.546 24.9016 26.2404 20.5689 26.3625C21.4236 25.8741 22.065 25.0527 21.8343 23.9735C21.592 22.8327 20.6386 22.512 19.6513 22.4596C19.6488 21.9237 19.6488 21.3891 19.6525 20.8532C19.9553 20.987 20.2458 21.1412 20.5097 21.3058C20.9759 21.5987 21.3977 20.8396 20.9346 20.5467C20.533 20.2943 20.1045 20.0876 19.6569 19.9307C19.663 19.3103 19.6661 18.6912 19.6661 18.072C19.6667 17.5047 18.8237 17.5047 18.8237 18.072C18.8237 18.6166 18.82 19.1604 18.8151 19.7037C18.3664 19.6255 17.9083 19.6178 17.4572 19.6809C17.3839 19.2727 17.295 18.8675 17.1908 18.4661C17.0515 17.9197 16.2374 18.151 16.3787 18.6992C16.4823 19.0932 16.5667 19.4854 16.6364 19.8832C16.6007 19.8967 16.5618 19.9035 16.5267 19.9196C15.3846 20.3716 14.6878 21.5241 15.5233 22.599C15.9125 23.0997 16.4212 23.302 16.9781 23.3692C17.0083 24.111 17.0274 24.8535 17.049 25.5947C16.6759 25.3524 16.3361 25.0416 16.0284 24.7129C15.6473 24.3108 15.0522 24.9318 15.4327 25.3333C15.9501 25.884 16.4934 26.3002 17.0823 26.5666C17.1088 27.1999 17.1464 27.8351 17.2081 28.4653C17.2624 29.0246 18.1059 29.0277 18.0511 28.4653C17.9991 27.9202 17.9606 27.3739 17.9357 26.8268C18.2564 26.8823 18.5931 26.8965 18.9508 26.8626C18.9909 27.446 19.0377 28.0293 19.1043 28.6127C19.1426 28.9469 19.462 29.0783 19.6976 29.0105L19.6451 30.2216C19.2739 30.2549 18.8953 30.2857 18.5006 30.3116L18.0307 30.3425L18.2811 30.747C18.3064 30.7877 18.5906 31.2372 19.2252 31.8915H18.3545V31.8903ZM33.7021 27.8314C32.9269 28.1958 31.9464 28.5301 30.9474 28.8218C30.3332 28.1872 29.5476 27.3405 28.9611 26.5894C30.2679 26.1935 30.9992 25.7853 31.3291 25.5651C31.59 25.7952 31.9353 25.9148 32.3442 25.9142C32.4798 25.9142 32.6001 25.9012 32.6926 25.8864C32.9886 26.27 33.4659 26.7128 33.7643 26.9773C33.6231 27.1222 33.5547 27.2826 33.5602 27.4558C33.5652 27.6038 33.6244 27.7296 33.7021 27.8314ZM29.2898 29.8578C29.4156 29.9688 29.5457 30.0822 29.6783 30.1969C27.1783 30.8598 25.3179 30.932 24.9127 30.9388C22.3239 29.3595 20.9821 27.6883 20.4647 26.936C22.6311 26.8817 24.4219 26.6856 25.9154 26.4155C25.9762 26.4901 26.0376 26.5641 26.0998 26.6375C24.8994 26.8245 23.6894 26.9445 22.4756 26.997L21.978 27.018L22.2518 27.4367C22.2512 27.4373 22.1957 27.541 21.8281 27.6125L21.2306 27.729L24.1684 30.1075L24.3053 30.0705C24.3084 30.0699 24.5674 30.0002 24.8806 30.0002C25.3327 30.0002 25.6416 30.1377 25.797 30.4066L25.8957 30.5768L26.0875 30.5429C27.1616 30.3471 28.2296 30.1186 29.2898 29.8578ZM20.5967 28.0454L19.8949 28.0071C19.8622 27.6569 19.8295 27.3066 19.8049 26.9564C19.9282 27.1611 20.181 27.5459 20.5967 28.0454ZM19.7284 25.7878C19.6879 24.9577 19.6635 24.1269 19.655 23.2958C19.7561 23.2995 19.8561 23.3088 19.951 23.3223C21.0413 23.4876 21.3262 24.7 20.4752 25.382C20.2532 25.5577 19.9973 25.6866 19.7284 25.7878ZM26.1658 29.9515C25.8895 29.6105 25.4498 29.4317 24.8813 29.4317C24.6438 29.4317 24.4348 29.4637 24.3028 29.4896L22.4559 27.993C22.6095 27.9048 22.7131 27.7932 22.7698 27.6563C22.7838 27.6222 22.7945 27.5869 22.8019 27.5508C24.2658 27.4706 25.4992 27.3245 26.542 27.1457C27.0476 27.7099 27.7907 28.4881 28.7761 29.3928C27.5656 29.6808 26.5561 29.8781 26.1658 29.9515ZM18.8114 23.318C18.8231 24.2116 18.8453 25.1076 18.8928 26.0005C18.8133 26.0128 18.735 26.0283 18.6566 26.0363C18.3915 26.0665 18.1399 26.0443 17.9006 25.9839C17.8704 25.1205 17.8506 24.2553 17.818 23.3914C18.1497 23.376 18.4858 23.3433 18.8114 23.318ZM17.7754 22.5379C17.7369 21.8603 17.6731 21.1844 17.5842 20.5116C17.993 20.4554 18.4086 20.4765 18.8096 20.5738C18.8051 21.2043 18.8041 21.8347 18.8065 22.4652C18.5358 22.48 18.2786 22.5059 18.0523 22.5262C17.9602 22.5334 17.8678 22.5373 17.7754 22.5379ZM16.9293 22.43C16.8769 22.4158 16.8251 22.4047 16.7715 22.3868C16.5247 22.3032 16.3013 22.1623 16.1197 21.9755C15.593 21.484 16.3158 21.0018 16.7715 20.773C16.843 21.3219 16.8923 21.8756 16.9293 22.43ZM23.7355 34.434C21.0585 33.0663 19.6223 31.5462 19.0519 30.842C19.462 30.8111 19.8499 30.7741 20.2341 30.7353L24.6235 33.5843L34.2497 30.94C29.2855 33.9321 24.3811 34.3878 23.7355 34.434ZM31.6856 29.5686C31.6066 29.4896 31.5123 29.3959 31.4007 29.283C32.4959 28.9513 33.5553 28.5665 34.3452 28.1434L34.8256 27.885L34.3385 27.6371C34.2293 27.581 34.1226 27.478 34.1208 27.4392C34.122 27.4244 34.1652 27.3455 34.352 27.2382L34.7085 27.0334L34.3915 26.7695C34.3816 26.7615 33.3931 25.9407 33.0459 25.4122L32.9312 25.2395L32.7345 25.2969C32.7327 25.2969 32.5637 25.3456 32.3442 25.3456C32.005 25.3462 31.7509 25.2352 31.5881 25.0169L31.4081 24.7783L31.1824 24.9725C31.1707 24.9824 30.472 25.5553 28.5979 26.0967C28.5362 26.0078 28.4768 25.9173 28.4197 25.8254C30.6921 25.1366 31.8533 24.3028 32.3565 23.8465C33.1643 25.5941 35.0877 27.002 35.9227 27.5539C34.5813 28.3656 33.1618 29.0405 31.6856 29.5686Z" fill="url(#paint0_linear_0_679)"/>
</g>
</g>
</g>
<defs>
<linearGradient id="paint0_linear_0_679" x1="0" y1="0" x2="0" y2="37" gradientUnits="userSpaceOnUse">
<stop stop-color="#3CBEE7"/>
<stop offset="1" stop-color="#639EE3"/>
</linearGradient>
</defs>
</svg>
