<svg width="21" height="21" viewBox="0 0 21 21" fill="none" xmlns="http://www.w3.org/2000/svg">
<g clip-path="url(#clip0_0_969)">
<path d="M18.2167 11.1814H15.0359V9.59105H18.2167V11.1814ZM18.2167 12.0902H15.0359V13.6806H18.2167V12.0902ZM18.2167 4.59277H15.0359V6.18313H18.2167V4.59281V4.59277ZM18.2167 7.09191H15.0359V8.68227H18.2167V7.09191ZM18.2167 14.5893H15.0359V16.1797H18.2167V14.5893V14.5893ZM20.4136 17.7246C20.3228 18.1972 19.7548 18.2086 19.3754 18.2245H12.3096V20.2692H10.8987L0.5 18.4516V2.55031L10.9601 0.730469H12.3096V2.54121H19.1323C19.5162 2.55711 19.9388 2.52984 20.2728 2.7593C20.5068 3.09555 20.4841 3.5227 20.5 3.90891L20.4909 15.7367C20.4796 16.3978 20.5522 17.0726 20.4136 17.7246ZM8.83121 14.16C8.20418 12.8877 7.56578 11.6245 6.94098 10.3521C7.55894 9.11395 8.16785 7.87121 8.77445 6.62844C8.25871 6.65344 7.74297 6.68523 7.22953 6.7216C6.84555 7.65535 6.39797 8.56414 6.09809 9.52973C5.81863 8.61867 5.44832 7.74168 5.1098 6.85336C4.60996 6.88063 4.11012 6.91016 3.61031 6.93969C4.13738 8.10297 4.69859 9.25023 5.20976 10.4203C4.6077 11.5563 4.04426 12.7082 3.46035 13.851C3.95789 13.8714 4.45547 13.8919 4.95301 13.8987C5.30746 12.9945 5.7482 12.1243 6.05719 11.2019C6.33437 12.1925 6.80465 13.108 7.1909 14.0554C7.73844 14.0941 8.28371 14.1282 8.83125 14.16H8.83121ZM19.4164 3.62023H12.3096V4.59277H14.1272V6.18313H12.3096V7.09191H14.1272V8.68227H12.3096V9.59105H14.1272V11.1814H12.3096V12.0902H14.1272V13.6806H12.3096V14.5893H14.1272V16.1797H12.3096V17.2304H19.4164V3.62023Z" fill="#313945"/>
</g>
<defs>
<clipPath id="clip0_0_969">
<rect width="20" height="20" fill="white" transform="translate(0.5 0.5)"/>
</clipPath>
</defs>
</svg>
