<svg width="29" height="27" viewBox="0 0 29 27" fill="none" xmlns="http://www.w3.org/2000/svg">
<path d="M9.16823 4.41138C9.67554 4.41138 10.1696 4.56688 10.5843 4.85472L10.7563 4.98706L13.3756 7.16849H21.8984C22.497 7.16829 23.0755 7.38452 23.5273 7.7773C23.979 8.17008 24.2736 8.71294 24.3566 9.3058L24.3742 9.48005L24.3798 9.64989V14.6678C23.8698 14.4067 23.296 14.2962 22.7255 14.3491V9.64989C22.7255 9.45001 22.6531 9.2569 22.5217 9.10626C22.3903 8.95562 22.2089 8.85766 22.0108 8.83047L21.8984 8.82275H13.3745L10.7563 11.0053C10.3673 11.329 9.88858 11.526 9.38439 11.5699L9.16823 11.5799L3.97714 11.5788V19.5755C3.97714 19.9946 4.28814 20.3409 4.69178 20.3949L4.80428 20.4026H12.6146C12.3527 20.9134 12.2273 21.4833 12.2507 22.0569H4.80428C4.17551 22.057 3.57017 21.8183 3.11058 21.3893C2.65099 20.9602 2.37143 20.3726 2.32839 19.7453L2.32288 19.5755V6.89278C2.3228 6.26402 2.56142 5.65867 2.9905 5.19908C3.41959 4.73949 4.00715 4.45993 4.63444 4.41689L4.80428 4.41138H9.16823ZM9.16823 6.06564H4.80428C4.6044 6.06565 4.41129 6.13804 4.26065 6.26941C4.11001 6.40079 4.01205 6.58227 3.98486 6.78029L3.97714 6.89278V9.92449L9.16823 9.9256C9.32221 9.92541 9.47308 9.88225 9.60385 9.80098L9.6976 9.7348L11.7831 7.99452L9.6987 6.25754C9.58004 6.15851 9.436 6.0947 9.28293 6.07336L9.16823 6.06564ZM17.487 18.7483C18.1451 18.7483 18.7762 18.4869 19.2416 18.0216C19.7069 17.5562 19.9684 16.9251 19.9684 16.2669C19.9684 15.6088 19.7069 14.9777 19.2416 14.5123C18.7762 14.047 18.1451 13.7856 17.487 13.7856C16.8289 13.7856 16.1977 14.047 15.7324 14.5123C15.267 14.9777 15.0056 15.6088 15.0056 16.2669C15.0056 16.9251 15.267 17.5562 15.7324 18.0216C16.1977 18.4869 16.8289 18.7483 17.487 18.7483ZM17.487 25.3654C20.4415 25.3654 21.6226 23.635 21.6226 21.919C21.6226 20.7776 20.8286 19.8512 19.8504 19.8512H15.1236C14.1454 19.8512 13.3513 20.7776 13.3513 21.919C13.3513 23.6417 14.5325 25.3654 17.487 25.3654ZM24.9312 17.3698C24.9312 17.8817 24.7278 18.3726 24.3659 18.7345C24.004 19.0964 23.5131 19.2998 23.0012 19.2998C22.4893 19.2998 21.9984 19.0964 21.6365 18.7345C21.2746 18.3726 21.0712 17.8817 21.0712 17.3698C21.0712 16.8579 21.2746 16.367 21.6365 16.0051C21.9984 15.6432 22.4893 15.4398 23.0012 15.4398C23.5131 15.4398 24.004 15.6432 24.3659 16.0051C24.7278 16.367 24.9312 16.8579 24.9312 17.3698ZM22.0814 24.2626C22.527 23.5347 22.7233 22.7131 22.7233 21.919C22.7223 21.3933 22.6016 20.8747 22.3704 20.4026H24.0688C24.8518 20.4026 25.487 21.0511 25.487 21.8506C25.487 23.0527 24.5419 24.2626 22.1785 24.2626H22.0814Z" fill="#313945"/>
<path d="M23.1973 12.7373C25.9587 12.7373 28.1973 10.4987 28.1973 7.7373C28.1973 4.97588 25.9587 2.7373 23.1973 2.7373C20.4358 2.7373 18.1973 4.97588 18.1973 7.7373C18.1973 10.4987 20.4358 12.7373 23.1973 12.7373Z" fill="#EB5757"/>
</svg>
