<svg width="18" height="18" viewBox="0 0 18 18" fill="none" xmlns="http://www.w3.org/2000/svg">
<g clip-path="url(#clip0_2489_61)">
<path d="M8.94394 0.5625C5.28769 0.5625 2.16582 2.925 1.0127 6.1875H16.9314C15.7502 2.925 12.6283 0.5625 8.94394 0.5625Z" fill="#F2B200"/>
<path d="M8.94394 17.4375C12.6283 17.4375 15.7502 15.1031 16.9033 11.8125H1.0127C2.16582 15.1031 5.28769 17.4375 8.94394 17.4375Z" fill="#83BF4F"/>
<path d="M1.0123 6.1875C0.70293 7.05937 0.53418 8.01562 0.53418 9C0.53418 9.98438 0.70293 10.9406 1.0123 11.8125H16.9311C17.2404 10.9406 17.4092 9.98438 17.4092 9C17.4092 8.01562 17.2404 7.05937 16.9311 6.1875H1.0123Z" fill="white"/>
<path d="M8.94385 11.25C10.1865 11.25 11.1938 10.2426 11.1938 9C11.1938 7.75736 10.1865 6.75 8.94385 6.75C7.70121 6.75 6.69385 7.75736 6.69385 9C6.69385 10.2426 7.70121 11.25 8.94385 11.25Z" fill="#428BC1"/>
<path d="M8.94385 10.9688C10.0312 10.9688 10.9126 10.0873 10.9126 9C10.9126 7.91269 10.0312 7.03125 8.94385 7.03125C7.85654 7.03125 6.9751 7.91269 6.9751 9C6.9751 10.0873 7.85654 10.9688 8.94385 10.9688Z" fill="white"/>
<path d="M8.21231 7.3125C8.28998 7.3125 8.35294 7.24954 8.35294 7.17188C8.35294 7.09421 8.28998 7.03125 8.21231 7.03125C8.13465 7.03125 8.07169 7.09421 8.07169 7.17188C8.07169 7.24954 8.13465 7.3125 8.21231 7.3125Z" fill="#428BC1"/>
<path d="M7.7623 7.56567C7.83996 7.56567 7.90292 7.50271 7.90292 7.42505C7.90292 7.34738 7.83996 7.28442 7.7623 7.28442C7.68463 7.28442 7.62167 7.34738 7.62167 7.42505C7.62167 7.50271 7.68463 7.56567 7.7623 7.56567Z" fill="#428BC1"/>
<path d="M7.39668 7.93127C7.47435 7.93127 7.53731 7.86831 7.53731 7.79065C7.53731 7.71298 7.47435 7.65002 7.39668 7.65002C7.31902 7.65002 7.25606 7.71298 7.25606 7.79065C7.25606 7.86831 7.31902 7.93127 7.39668 7.93127Z" fill="#428BC1"/>
<path d="M7.14355 8.38123C7.22122 8.38123 7.28418 8.31827 7.28418 8.2406C7.28418 8.16294 7.22122 8.09998 7.14355 8.09998C7.06589 8.09998 7.00293 8.16294 7.00293 8.2406C7.00293 8.31827 7.06589 8.38123 7.14355 8.38123Z" fill="#428BC1"/>
<path d="M7.00293 8.88745C7.08059 8.88745 7.14355 8.82449 7.14355 8.74683C7.14355 8.66916 7.08059 8.6062 7.00293 8.6062C6.92526 8.6062 6.8623 8.66916 6.8623 8.74683C6.8623 8.82449 6.92526 8.88745 7.00293 8.88745Z" fill="#428BC1"/>
<path d="M7.00293 9.3938C7.08059 9.3938 7.14355 9.33084 7.14355 9.25317C7.14355 9.17551 7.08059 9.11255 7.00293 9.11255C6.92526 9.11255 6.8623 9.17551 6.8623 9.25317C6.8623 9.33084 6.92526 9.3938 7.00293 9.3938Z" fill="#428BC1"/>
<path d="M7.14355 9.90002C7.22122 9.90002 7.28418 9.83706 7.28418 9.7594C7.28418 9.68173 7.22122 9.61877 7.14355 9.61877C7.06589 9.61877 7.00293 9.68173 7.00293 9.7594C7.00293 9.83706 7.06589 9.90002 7.14355 9.90002Z" fill="#428BC1"/>
<path d="M7.39668 10.35C7.47435 10.35 7.53731 10.287 7.53731 10.2094C7.53731 10.1317 7.47435 10.0687 7.39668 10.0687C7.31902 10.0687 7.25606 10.1317 7.25606 10.2094C7.25606 10.287 7.31902 10.35 7.39668 10.35Z" fill="#428BC1"/>
<path d="M7.7623 10.7156C7.83996 10.7156 7.90292 10.6526 7.90292 10.575C7.90292 10.4973 7.83996 10.4343 7.7623 10.4343C7.68463 10.4343 7.62167 10.4973 7.62167 10.575C7.62167 10.6526 7.68463 10.7156 7.7623 10.7156Z" fill="#428BC1"/>
<path d="M8.21231 10.9688C8.28998 10.9688 8.35294 10.9058 8.35294 10.8281C8.35294 10.7505 8.28998 10.6875 8.21231 10.6875C8.13465 10.6875 8.07169 10.7505 8.07169 10.8281C8.07169 10.9058 8.13465 10.9688 8.21231 10.9688Z" fill="#428BC1"/>
<path d="M8.69043 11.0813C8.76809 11.0813 8.83105 11.0183 8.83105 10.9407C8.83105 10.863 8.76809 10.8 8.69043 10.8C8.61276 10.8 8.5498 10.863 8.5498 10.9407C8.5498 11.0183 8.61276 11.0813 8.69043 11.0813Z" fill="#428BC1"/>
<path d="M9.08418 10.9688C9.08418 10.8844 9.14043 10.8282 9.19668 10.8C9.28106 10.8 9.33731 10.8563 9.36543 10.9125C9.36543 10.9969 9.30918 11.0532 9.25293 11.0813C9.14043 11.1094 9.08418 11.0532 9.08418 10.9688Z" fill="#428BC1"/>
<path d="M9.70293 10.9688C9.78059 10.9688 9.84355 10.9058 9.84355 10.8281C9.84355 10.7505 9.78059 10.6875 9.70293 10.6875C9.62526 10.6875 9.5623 10.7505 9.5623 10.8281C9.5623 10.9058 9.62526 10.9688 9.70293 10.9688Z" fill="#428BC1"/>
<path d="M10.1529 10.7156C10.2306 10.7156 10.2935 10.6526 10.2935 10.575C10.2935 10.4973 10.2306 10.4343 10.1529 10.4343C10.0753 10.4343 10.0123 10.4973 10.0123 10.575C10.0123 10.6526 10.0753 10.7156 10.1529 10.7156Z" fill="#428BC1"/>
<path d="M10.5186 10.35C10.5962 10.35 10.6592 10.287 10.6592 10.2094C10.6592 10.1317 10.5962 10.0687 10.5186 10.0687C10.4409 10.0687 10.3779 10.1317 10.3779 10.2094C10.3779 10.287 10.4409 10.35 10.5186 10.35Z" fill="#428BC1"/>
<path d="M10.7717 9.90002C10.8493 9.90002 10.9123 9.83706 10.9123 9.7594C10.9123 9.68173 10.8493 9.61877 10.7717 9.61877C10.694 9.61877 10.6311 9.68173 10.6311 9.7594C10.6311 9.83706 10.694 9.90002 10.7717 9.90002Z" fill="#428BC1"/>
<path d="M10.9123 9.3938C10.99 9.3938 11.0529 9.33084 11.0529 9.25317C11.0529 9.17551 10.99 9.11255 10.9123 9.11255C10.8346 9.11255 10.7717 9.17551 10.7717 9.25317C10.7717 9.33084 10.8346 9.3938 10.9123 9.3938Z" fill="#428BC1"/>
<path d="M10.9123 8.88745C10.8279 8.88745 10.7717 8.8312 10.7436 8.77495C10.7436 8.69058 10.7998 8.63433 10.8561 8.6062C10.9404 8.6062 10.9967 8.66245 11.0248 8.7187C11.0529 8.80308 10.9967 8.85933 10.9123 8.88745Z" fill="#428BC1"/>
<path d="M10.7717 8.38123C10.8493 8.38123 10.9123 8.31827 10.9123 8.2406C10.9123 8.16294 10.8493 8.09998 10.7717 8.09998C10.694 8.09998 10.6311 8.16294 10.6311 8.2406C10.6311 8.31827 10.694 8.38123 10.7717 8.38123Z" fill="#428BC1"/>
<path d="M10.5186 7.93127C10.5962 7.93127 10.6592 7.86831 10.6592 7.79065C10.6592 7.71298 10.5962 7.65002 10.5186 7.65002C10.4409 7.65002 10.3779 7.71298 10.3779 7.79065C10.3779 7.86831 10.4409 7.93127 10.5186 7.93127Z" fill="#428BC1"/>
<path d="M10.1529 7.56567C10.2306 7.56567 10.2935 7.50271 10.2935 7.42505C10.2935 7.34738 10.2306 7.28442 10.1529 7.28442C10.0753 7.28442 10.0123 7.34738 10.0123 7.42505C10.0123 7.50271 10.0753 7.56567 10.1529 7.56567Z" fill="#428BC1"/>
<path d="M9.84355 7.22812C9.81543 7.31249 9.73105 7.34062 9.64668 7.31249C9.5623 7.28437 9.53418 7.19999 9.5623 7.11562C9.59043 7.03124 9.6748 7.00312 9.75918 7.03124C9.84355 7.08749 9.87168 7.17187 9.84355 7.22812ZM9.3373 7.05937C9.3373 7.14374 9.25293 7.19999 9.16855 7.17187C9.08418 7.17187 9.02793 7.08749 9.05605 7.00312C9.05605 6.91874 9.14043 6.86249 9.2248 6.89062C9.30918 6.91874 9.36543 7.00312 9.3373 7.05937ZM8.83105 7.03124C8.83105 7.11562 8.7748 7.17187 8.71855 7.19999C8.63418 7.19999 8.57793 7.14374 8.5498 7.08749C8.5498 7.00312 8.60605 6.94687 8.6623 6.91874C8.74668 6.89062 8.83105 6.94687 8.83105 7.03124Z" fill="#428BC1"/>
<path d="M8.94356 9.42188C9.17655 9.42188 9.36543 9.233 9.36543 9C9.36543 8.767 9.17655 8.57812 8.94356 8.57812C8.71056 8.57812 8.52168 8.767 8.52168 9C8.52168 9.233 8.71056 9.42188 8.94356 9.42188Z" fill="#428BC1"/>
<path d="M8.94355 7.03125L8.8873 8.24062L8.94355 9L9.02793 8.24062L8.94355 7.03125ZM8.4373 7.0875L8.69043 8.29688L8.94355 9L8.83105 8.24062L8.4373 7.0875Z" fill="#428BC1"/>
<path d="M7.95918 7.28442L8.52168 8.3813L8.94355 9.00005L8.63418 8.29692L7.95918 7.28442ZM7.56543 7.5938L8.38105 8.52192L8.94355 9.00005L8.46543 8.40942L7.56543 7.5938Z" fill="#428BC1"/>
<path d="M7.25606 8.01562L8.26856 8.69062L8.94356 9L8.32481 8.55L7.25606 8.01562Z" fill="#428BC1"/>
<path d="M7.05918 8.49377L8.21231 8.8594L8.94356 9.00002L8.24043 8.7469L7.05918 8.49377ZM6.97481 9.00002L8.21231 9.05627L8.94356 9.00002L8.21231 8.94377L6.97481 9.00002Z" fill="#428BC1"/>
<path d="M7.05917 9.50625L8.24042 9.25313L8.94355 9L8.2123 9.14062L7.05917 9.50625ZM7.25605 9.98438L8.3248 9.45L8.94355 9L8.26855 9.30937L7.25605 9.98438Z" fill="#428BC1"/>
<path d="M7.56543 10.3781L8.46543 9.59062L8.94355 9L8.38105 9.47813L7.56543 10.3781ZM7.95918 10.7156L8.63418 9.675L8.94355 9L8.52168 9.61875L7.95918 10.7156Z" fill="#428BC1"/>
<path d="M8.4373 10.9125L8.83105 9.75938L8.94355 9L8.69043 9.70312L8.4373 10.9125ZM8.94355 10.9688L9.02793 9.75938L8.94355 9L8.8873 9.75938L8.94355 10.9688ZM9.4498 10.9125L9.2248 9.70312L8.94355 9L9.08418 9.75938L9.4498 10.9125Z" fill="#428BC1"/>
<path d="M9.92793 10.7156L9.39356 9.61875L8.94356 9L9.28106 9.70313L9.92793 10.7156ZM10.3498 10.3781L9.53418 9.47813L8.94356 9L9.44981 9.59062L10.3498 10.3781Z" fill="#428BC1"/>
<path d="M10.6592 9.9844L9.64668 9.3094L8.94356 9.00002L9.56231 9.45002L10.6592 9.9844ZM10.8561 9.50627L9.70293 9.14065L8.94356 9.00002L9.67481 9.25315L10.8561 9.50627ZM10.9123 9.00002L9.70293 8.91565L8.94356 9.00002L9.70293 9.05627L10.9123 9.00002ZM10.8561 8.49377L9.67481 8.7469L8.94356 9.00002L9.70293 8.8594L10.8561 8.49377Z" fill="#428BC1"/>
<path d="M10.6592 8.01558L9.56231 8.54995L8.94356 8.99995L9.64668 8.69058L10.6592 8.01558ZM10.3498 7.62183L9.44981 8.40933L8.94356 8.99995L9.53418 8.52183L10.3498 7.62183Z" fill="#428BC1"/>
<path d="M9.92793 7.28442L9.28106 8.32505L8.94356 9.00005L9.39356 8.3813L9.92793 7.28442Z" fill="#428BC1"/>
<path d="M9.47793 7.08752L9.08418 8.24065L8.94356 9.00002L9.22481 8.2969L9.47793 7.08752Z" fill="#428BC1"/>
</g>
<defs>
<clipPath id="clip0_2489_61">
<rect width="18" height="18" fill="white"/>
</clipPath>
</defs>
</svg>
