<svg width="25" height="25" viewBox="0 0 25 25" fill="none" xmlns="http://www.w3.org/2000/svg">
<path d="M15.5875 2.11253C15.172 1.73158 14.6254 1.52576 14.0618 1.53799C13.4982 1.55022 12.9611 1.77955 12.5625 2.17815L2.22501 12.5172C2.02186 12.7203 1.86071 12.9615 1.75076 13.2269C1.64082 13.4923 1.58423 13.7768 1.58423 14.0641C1.58423 14.3514 1.64082 14.6358 1.75076 14.9013C1.86071 15.1667 2.02186 15.4078 2.22501 15.611L3.67189 17.0563C4.21407 17.6 4.99376 17.4688 5.45314 17.1625C5.7837 16.9428 6.18013 16.8443 6.57509 16.8837C6.97005 16.9231 7.33921 17.0979 7.61988 17.3786C7.90055 17.6593 8.07542 18.0284 8.11481 18.4234C8.15419 18.8184 8.05566 19.2148 7.83595 19.5453C7.53126 20.0047 7.40001 20.786 7.9422 21.3282L9.35626 22.7407C9.5633 22.9479 9.80986 23.1115 10.0813 23.2216C10.3528 23.3318 10.6436 23.3863 10.9365 23.3819C11.2294 23.3775 11.5185 23.3144 11.7865 23.1962C12.0546 23.078 12.2961 22.9071 12.4969 22.6938L22.8063 11.7375C23.0047 11.5266 23.1593 11.2784 23.2611 11.0073C23.3629 10.7362 23.4099 10.4476 23.3993 10.1582C23.3887 9.86883 23.3207 9.58443 23.1993 9.32151C23.078 9.05858 22.9056 8.82238 22.6922 8.62659L21.3078 7.35628C21.1554 7.2203 20.9734 7.1217 20.7762 7.06827C20.579 7.01484 20.3721 7.00806 20.1719 7.04847C19.8172 7.11097 19.4813 7.29847 19.2375 7.56409C19.085 7.7305 18.9011 7.86523 18.6965 7.96059C18.4919 8.05595 18.2705 8.11007 18.0449 8.11987C17.8194 8.12966 17.5941 8.09493 17.382 8.01767C17.1698 7.94041 16.975 7.82212 16.8086 7.66956C16.4725 7.36145 16.2726 6.93246 16.2528 6.47695C16.243 6.2514 16.2778 6.02614 16.355 5.81401C16.4323 5.60189 16.5506 5.40706 16.7031 5.24065C16.9485 4.97815 17.1063 4.62659 17.1391 4.26722C17.1617 4.06443 17.1367 3.85916 17.0662 3.66769C16.9957 3.47622 16.8815 3.3038 16.7328 3.16409L15.5875 2.11253Z" fill="#4DAEFF"/>
</svg>
