<svg width="32" height="32" viewBox="0 0 32 32" fill="none" xmlns="http://www.w3.org/2000/svg">
<path fill-rule="evenodd" clip-rule="evenodd" d="M19.1813 16.4447C18.9974 15.9247 18.6569 15.4745 18.2065 15.1561C17.7562 14.8377 17.2182 14.6667 16.6667 14.6667V14H15.3333V14.6667C14.6261 14.6667 13.9478 14.9476 13.4477 15.4477C12.9476 15.9478 12.6667 16.6261 12.6667 17.3333C12.6667 18.0406 12.9476 18.7189 13.4477 19.219C13.9478 19.719 14.6261 20 15.3333 20V22.6667C14.7533 22.6667 14.2593 22.2967 14.0753 21.778C14.048 21.6931 14.004 21.6146 13.9458 21.5471C13.8876 21.4795 13.8165 21.4244 13.7366 21.3848C13.6568 21.3452 13.5698 21.3221 13.4808 21.3167C13.3918 21.3113 13.3027 21.3239 13.2186 21.3536C13.1346 21.3833 13.0573 21.4295 12.9915 21.4896C12.9256 21.5497 12.8725 21.6223 12.8352 21.7033C12.7979 21.7843 12.7772 21.8719 12.7744 21.961C12.7715 22.0501 12.7866 22.1388 12.8187 22.222C13.0026 22.742 13.3431 23.1922 13.7935 23.5106C14.2438 23.829 14.7818 24 15.3333 24V24.6667H16.6667V24C17.3739 24 18.0522 23.719 18.5523 23.219C19.0524 22.7189 19.3333 22.0406 19.3333 21.3333C19.3333 20.6261 19.0524 19.9478 18.5523 19.4477C18.0522 18.9476 17.3739 18.6667 16.6667 18.6667V16C16.9424 15.9999 17.2114 16.0854 17.4366 16.2445C17.6617 16.4037 17.832 16.6287 17.924 16.8887C17.9829 17.0554 18.1056 17.1919 18.2651 17.2682C18.3441 17.3059 18.4298 17.3278 18.5172 17.3324C18.6046 17.3371 18.6921 17.3245 18.7747 17.2953C18.8572 17.2662 18.9332 17.2211 18.9983 17.1625C19.0635 17.104 19.1164 17.0332 19.1542 16.9542C19.1919 16.8752 19.2138 16.7896 19.2184 16.7021C19.2231 16.6147 19.2105 16.5272 19.1813 16.4447ZM15.3333 16C14.9797 16 14.6406 16.1405 14.3905 16.3905C14.1405 16.6406 14 16.9797 14 17.3333C14 17.687 14.1405 18.0261 14.3905 18.2761C14.6406 18.5262 14.9797 18.6667 15.3333 18.6667V16ZM16.6667 22.6667C17.0203 22.6667 17.3594 22.5262 17.6095 22.2761C17.8595 22.0261 18 21.687 18 21.3333C18 20.9797 17.8595 20.6406 17.6095 20.3905C17.3594 20.1405 17.0203 20 16.6667 20V22.6667Z" fill="#313945"/>
<path fill-rule="evenodd" clip-rule="evenodd" d="M8.76867 5.74733C10.4047 4.94667 13.0887 4 16.026 4C18.902 4 21.5153 4.90733 23.1427 5.69733L23.2347 5.742C23.7253 5.98467 24.1213 6.214 24.4 6.4L21.9373 10C27.6147 15.804 32 27.998 16.026 27.998C0.052 27.998 4.31933 16.0253 10.046 10L7.59933 6.4C7.788 6.27667 8.02733 6.13333 8.31267 5.98133C8.454 5.90533 8.606 5.82733 8.76867 5.748V5.74733ZM20.3547 9.952L22.326 7.07C20.4927 7.202 18.3113 7.63267 16.2113 8.24067C14.7113 8.674 13.0447 8.608 11.5013 8.32333C11.1124 8.25123 10.7262 8.1654 10.3433 8.066L11.6233 9.95067C14.3667 10.9273 17.6107 10.9273 20.3547 9.952ZM10.8533 11.0867C14.0633 12.3267 17.9213 12.3267 21.1313 11.0853C22.4712 12.4978 23.5921 14.1029 24.4567 15.8473C25.358 17.686 25.8487 19.524 25.7687 21.108C25.6913 22.6367 25.09 23.9427 23.7167 24.9133C22.2853 25.9247 19.878 26.6647 16.0253 26.6647C12.1687 26.6647 9.75 25.9373 8.30533 24.9373C6.922 23.9787 6.31467 22.6907 6.22867 21.1827C6.13867 19.616 6.61867 17.7873 7.51667 15.936C8.37333 14.1707 9.56867 12.4713 10.8533 11.0867ZM10.0867 6.61067C10.62 6.76933 11.1773 6.90733 11.7427 7.012C13.176 7.276 14.6133 7.31467 15.84 6.95933C17.2695 6.5429 18.7234 6.21538 20.1933 5.97867C18.9667 5.60933 17.532 5.33333 16.0253 5.33333C13.7287 5.33333 11.5867 5.974 10.0867 6.61067Z" fill="#313945"/>
</svg>
