<svg width="21" height="21" viewBox="0 0 21 21" fill="none" xmlns="http://www.w3.org/2000/svg">
<path d="M12.7502 16.3885C12.7502 16.3885 12.4191 14.1802 17.1156 13.9258L18.3629 14.5414L19.6102 16.3885V17.6198L18.9865 19.4668L15.2447 20.6982L13.9974 18.8511L12.7502 16.3885Z" fill="#D7D9E6"/>
<path d="M0.50506 4.14431C0.50506 4.14431 0.173958 1.9361 4.8705 1.68164L6.11782 2.29731L7.36509 4.14431V5.37565L6.74139 7.22267L2.99956 8.45401L1.75228 6.60701L0.50506 4.14431Z" fill="#D7D9E6"/>
<path d="M19.2092 8.82448C19.6603 8.82448 20.0929 8.64528 20.4118 8.32632C20.7308 8.00735 20.91 7.57473 20.91 7.12365V2.02115C20.91 1.57006 20.7308 1.13744 20.4118 0.818475C20.0929 0.499507 19.6603 0.320313 19.2092 0.320312H14.1067C13.6556 0.320313 13.223 0.499507 12.904 0.818475C12.585 1.13744 12.4058 1.57006 12.4058 2.02115V7.12365C12.4058 7.57473 12.585 8.00735 12.904 8.32632C13.223 8.64528 13.6556 8.82448 14.1067 8.82448H15.8075V12.3112C14.9903 12.4778 14.2402 12.8811 13.6505 13.4708C13.0608 14.0605 12.6575 14.8107 12.4909 15.6278H9.00417V13.927C9.00417 13.4759 8.82498 13.0433 8.50601 12.7243C8.18704 12.4053 7.75443 12.2261 7.30334 12.2261H5.60251V8.73944C6.63495 8.52869 7.55236 7.9421 8.17689 7.09338C8.80141 6.24466 9.08855 5.19429 8.98264 4.14589C8.87673 3.0975 8.38532 2.12577 7.60367 1.41911C6.82202 0.71244 5.80582 0.32118 4.75209 0.32118C3.69836 0.32118 2.68216 0.71244 1.90051 1.41911C1.11887 2.12577 0.627451 3.0975 0.521541 4.14589C0.415632 5.19429 0.702774 6.24466 1.3273 7.09338C1.95182 7.9421 2.86923 8.52869 3.90167 8.73944V12.2261H2.20084C1.74975 12.2261 1.31714 12.4053 0.998172 12.7243C0.679204 13.0433 0.50001 13.4759 0.50001 13.927V19.0295C0.50001 19.4806 0.679204 19.9132 0.998172 20.2321C1.31714 20.5511 1.74975 20.7303 2.20084 20.7303H7.30334C7.75443 20.7303 8.18704 20.5511 8.50601 20.2321C8.82498 19.9132 9.00417 19.4806 9.00417 19.0295V17.3286H12.4909C12.6447 18.0812 12.9995 18.778 13.5176 19.3451C14.0356 19.9122 14.6976 20.3283 15.4332 20.5494C16.1689 20.7704 16.9506 20.788 17.6954 20.6004C18.4403 20.4128 19.1204 20.0269 19.6635 19.4838C20.2066 18.9407 20.5925 18.2606 20.7801 17.5157C20.9677 16.7709 20.9501 15.9892 20.7291 15.2536C20.508 14.5179 20.0919 13.8559 19.5248 13.3379C18.9577 12.8198 18.2609 12.465 17.5083 12.3112V8.82448H19.2092ZM2.20084 4.5724C2.20084 4.06781 2.35047 3.57455 2.63081 3.155C2.91114 2.73545 3.30959 2.40845 3.77577 2.21535C4.24195 2.02225 4.75492 1.97173 5.24981 2.07017C5.74471 2.16861 6.1993 2.41159 6.5561 2.76839C6.9129 3.12519 7.15588 3.57978 7.25432 4.07467C7.35276 4.56957 7.30224 5.08254 7.10914 5.54872C6.91604 6.0149 6.58904 6.41335 6.16949 6.69368C5.74994 6.97402 5.25668 7.12365 4.75209 7.12365C4.07546 7.12365 3.42654 6.85485 2.94809 6.3764C2.46963 5.89795 2.20084 5.24903 2.20084 4.5724ZM7.30334 19.0295H2.20084V13.927H7.30334V19.0295ZM19.2092 16.4782C19.2092 16.9828 19.0595 17.4761 18.7792 17.8956C18.4989 18.3152 18.1004 18.6422 17.6342 18.8353C17.1681 19.0284 16.6551 19.0789 16.1602 18.9805C15.6653 18.882 15.2107 18.639 14.8539 18.2822C14.4971 17.9254 14.2541 17.4708 14.1557 16.976C14.0573 16.4811 14.1078 15.9681 14.3009 15.5019C14.494 15.0357 14.821 14.6373 15.2405 14.3569C15.6601 14.0766 16.1533 13.927 16.6579 13.927C17.3346 13.927 17.9835 14.1958 18.4619 14.6742C18.9404 15.1527 19.2092 15.8016 19.2092 16.4782ZM14.1067 2.02115H19.2092V7.12365H14.1067V2.02115Z" fill="black"/>
</svg>
