<svg width="26" height="28" viewBox="0 0 26 28" fill="none" xmlns="http://www.w3.org/2000/svg">
<mask id="mask0_2489_12" style="mask-type:luminance" maskUnits="userSpaceOnUse" x="0" y="0" width="24" height="22">
<path fill-rule="evenodd" clip-rule="evenodd" d="M0.498047 0H23.9211V21.9682H0.498047V0Z" fill="white"/>
</mask>
<g mask="url(#mask0_2489_12)">
<path fill-rule="evenodd" clip-rule="evenodd" d="M12.2076 1.89941C7.78176 1.89941 4.697 5.36661 4.697 8.47797C4.697 11.1107 3.96633 12.3276 3.3205 13.4014C2.80258 14.2638 2.39355 14.9451 2.39355 16.4254C2.60503 18.8137 4.1816 20.0686 12.2076 20.0686C20.1892 20.0686 21.8152 18.758 22.0254 16.3431C22.0216 14.9451 21.6126 14.2638 21.0946 13.4014C20.4488 12.3276 19.7181 11.1107 19.7181 8.47797C19.7181 5.36661 16.6334 1.89941 12.2076 1.89941ZM12.2078 21.9682C6.28643 21.9682 0.934946 21.5503 0.498064 16.5065C0.494265 14.4196 1.13123 13.3585 1.69347 12.4239C2.26205 11.4767 2.79771 10.5839 2.79771 8.47804C2.79771 4.38401 6.57895 0 12.2078 0C17.8366 0 21.6178 4.38401 21.6178 8.47804C21.6178 10.5839 22.1535 11.4767 22.7221 12.4239C23.2843 13.3585 23.9213 14.4196 23.9213 16.4255C23.4793 21.5503 18.1291 21.9682 12.2078 21.9682Z" fill="#313945"/>
</g>
<path fill-rule="evenodd" clip-rule="evenodd" d="M12.146 27.226H12.1435C10.7239 27.2248 9.38037 26.5992 8.36098 25.4633C8.01021 25.0745 8.04187 24.473 8.4319 24.1235C8.82192 23.7715 9.42216 23.8031 9.77293 24.1944C10.4289 24.9251 11.271 25.3265 12.1448 25.3265H12.146C13.0236 25.3265 13.8695 24.9251 14.5267 24.1932C14.8788 23.8044 15.479 23.7728 15.8678 24.1235C16.2578 24.4743 16.2894 25.0758 15.9387 25.4646C14.9155 26.6005 13.5694 27.226 12.146 27.226Z" fill="#313945"/>
<path d="M20.4043 10.9131C23.1657 10.9131 25.4043 8.67451 25.4043 5.91309C25.4043 3.15166 23.1657 0.913086 20.4043 0.913086C17.6429 0.913086 15.4043 3.15166 15.4043 5.91309C15.4043 8.67451 17.6429 10.9131 20.4043 10.9131Z" fill="#EB5757"/>
</svg>
