<svg width="30" height="30" viewBox="0 0 30 30" fill="none" xmlns="http://www.w3.org/2000/svg">
<path d="M14.1976 2.50709C14.3877 2.23022 14.6319 1.99611 14.9149 1.81939C15.1979 1.64266 15.5138 1.5271 15.8427 1.47992C16.1717 1.43274 16.5067 1.45495 16.8268 1.54517C17.1469 1.63539 17.4453 1.79167 17.7034 2.00427L22.974 6.35271C23.4449 6.74104 23.7551 7.29503 23.8428 7.90482C23.9306 8.5146 23.7896 9.13564 23.4479 9.64475H21.4815L22.1101 8.72921C22.2271 8.55962 22.2765 8.35128 22.2484 8.14615C22.2203 7.94101 22.1167 7.75432 21.9586 7.62367L19.2443 5.38639L16.3494 9.64475H14.3878L17.9886 4.35128L16.6863 3.27687C16.6003 3.20597 16.5009 3.15384 16.3942 3.12373C16.2875 3.09361 16.1759 3.08616 16.0662 3.10184C15.9566 3.11751 15.8513 3.15598 15.7569 3.21483C15.6625 3.27369 15.5811 3.35168 15.5177 3.44393L11.2609 9.64312H9.29449L14.1976 2.50709ZM19.8358 19.4717C19.6221 19.4717 19.4171 19.558 19.2659 19.7116C19.1148 19.8652 19.0299 20.0735 19.0299 20.2907C19.0299 20.5078 19.1148 20.7161 19.2659 20.8697C19.4171 21.0233 19.6221 21.1096 19.8358 21.1096H21.4476C21.6614 21.1096 21.8663 21.0233 22.0175 20.8697C22.1686 20.7161 22.2535 20.5078 22.2535 20.2907C22.2535 20.0735 22.1686 19.8652 22.0175 19.7116C21.8663 19.558 21.6614 19.4717 21.4476 19.4717H19.8358ZM5.32941 8.00692H8.82545L7.69717 9.64475H5.32941C5.11567 9.64475 4.91068 9.73103 4.75954 9.88461C4.60841 10.0382 4.5235 10.2465 4.5235 10.4637C4.5235 10.6809 4.60841 10.8892 4.75954 11.0427C4.91068 11.1963 5.11567 11.2826 5.32941 11.2826H22.2535C23.1085 11.2826 23.9284 11.6277 24.533 12.242C25.1375 12.8563 25.4772 13.6895 25.4772 14.5582V24.3852C25.4772 25.254 25.1375 26.0872 24.533 26.7015C23.9284 27.3158 23.1085 27.6609 22.2535 27.6609H6.94123C5.87252 27.6609 4.84759 27.2295 4.0919 26.4616C3.33622 25.6937 2.91168 24.6523 2.91168 23.5663V10.4637C2.91168 9.8121 3.1664 9.18722 3.61981 8.72649C4.07323 8.26576 4.68819 8.00692 5.32941 8.00692ZM4.5235 23.5663C4.5235 24.2179 4.77822 24.8428 5.23163 25.3035C5.68505 25.7642 6.30001 26.0231 6.94123 26.0231H22.2535C22.681 26.0231 23.091 25.8505 23.3933 25.5434C23.6955 25.2362 23.8653 24.8196 23.8653 24.3852V14.5582C23.8653 14.1239 23.6955 13.7073 23.3933 13.4001C23.091 13.093 22.681 12.9204 22.2535 12.9204H5.32941C5.04734 12.9204 4.77494 12.8713 4.5235 12.7812V23.5663Z" fill="#313945"/>
<path d="M23.0791 13.6504C25.8405 13.6504 28.0791 11.4118 28.0791 8.65039C28.0791 5.88897 25.8405 3.65039 23.0791 3.65039C20.3177 3.65039 18.0791 5.88897 18.0791 8.65039C18.0791 11.4118 20.3177 13.6504 23.0791 13.6504Z" fill="#EB5757"/>
</svg>
