<svg width="23" height="22" viewBox="0 0 23 22" fill="none" xmlns="http://www.w3.org/2000/svg">
<path d="M7.20148 13.6837C7.20148 13.6837 -1.9683 5.20494 3.54256 4.90249L8.81902 0.511841V7.09778H21.9909L21.9909 9.68539V13.6837L21.2591 14.8078L16.1367 21.0014L15.405 13.6837H7.20148Z" fill="#D7D9E6"/>
<path d="M21.8269 13.1575H0.940147C0.808086 13.1575 0.700035 13.2655 0.700035 13.3976V15.1984C0.700035 15.3305 0.808086 15.4385 0.940147 15.4385H19.1046L14.7736 20.9311C14.6506 21.0872 14.7616 21.3213 14.9627 21.3213H17.1387C17.2858 21.3213 17.4239 21.2552 17.5169 21.1382L22.5833 14.7122C23.0785 14.0819 22.6313 13.1575 21.8269 13.1575ZM22.5502 6.07415L3.76789 6.32545L8.71678 0.581589C8.83984 0.425516 8.72879 0.191406 8.52769 0.191406H6.35168C6.20461 0.191406 6.06654 0.257437 5.9735 0.374492L0.907132 6.80049C0.4119 7.43079 0.859109 8.35522 1.66048 8.35522H22.5502C22.6823 8.35522 22.7904 8.24717 22.7904 8.11511V6.31427C22.7904 6.1822 22.6823 6.07415 22.5502 6.07415Z" fill="black"/>
</svg>
