<svg width="17" height="16" viewBox="0 0 17 16" fill="none" xmlns="http://www.w3.org/2000/svg">
<path d="M17 3.18514V7.33329C17 7.47081 16.936 7.6027 16.8222 7.69994C16.7084 7.79718 16.554 7.85181 16.393 7.85181C16.232 7.85181 16.0776 7.79718 15.9637 7.69994C15.8499 7.6027 15.786 7.47081 15.786 7.33329V4.43607L9.54123 9.77681C9.42614 9.87418 9.27071 9.9288 9.10873 9.9288C8.94675 9.9288 8.79131 9.87418 8.67623 9.77681L6.07362 7.54718L1.04294 11.8509C0.926416 11.946 0.771624 11.9994 0.610436 12C0.449546 11.9981 0.295284 11.9449 0.177933 11.8509C0.0639457 11.7526 0 11.6198 0 11.4814C0 11.3431 0.0639457 11.2103 0.177933 11.112L5.64112 6.44533C5.75621 6.34796 5.91164 6.29334 6.07362 6.29334C6.23561 6.29334 6.39104 6.34796 6.50613 6.44533L9.10873 8.67496L14.9285 3.70366H11.5368C11.3758 3.70366 11.2214 3.64903 11.1076 3.55179C10.9937 3.45455 10.9298 3.32266 10.9298 3.18514C10.9298 3.04762 10.9937 2.91574 11.1076 2.8185C11.2214 2.72126 11.3758 2.66663 11.5368 2.66663H16.393C16.554 2.66663 16.7084 2.72126 16.8222 2.8185C16.936 2.91574 17 3.04762 17 3.18514Z" fill="#49E45F"/>
</svg>
